<svg width="22" height="18" viewBox="0 0 22 18" fill="none" xmlns="http://www.w3.org/2000/svg">
<path d="M0.5 9C0.5 4.02944 4.52944 0 9.5 0H12.5C17.4706 0 21.5 4.02944 21.5 9C21.5 13.9706 17.4706 18 12.5 18H9.5C4.52944 18 0.5 13.9706 0.5 9Z" fill="white"/>
<path d="M8.37109 13C8.12175 13 7.89442 12.9413 7.68909 12.824C7.49109 12.6993 7.33342 12.538 7.21609 12.34C7.09875 12.1347 7.04009 11.911 7.04009 11.669V6.422C7.04009 6.17267 7.09875 5.949 7.21609 5.751C7.33342 5.54567 7.49109 5.38433 7.68909 5.267C7.89442 5.14233 8.12175 5.08 8.37109 5.08H13.7061C13.9481 5.08 14.1681 5.14233 14.3661 5.267C14.5714 5.38433 14.7328 5.54567 14.8501 5.751C14.9748 5.949 15.0371 6.17267 15.0371 6.422V11.669C15.0371 11.911 14.9748 12.1347 14.8501 12.34C14.7328 12.538 14.5714 12.6993 14.3661 12.824C14.1681 12.9413 13.9481 13 13.7061 13H8.37109ZM8.05209 12.098H13.7061C13.8234 12.098 13.9224 12.0577 14.0031 11.977C14.0911 11.889 14.1351 11.7863 14.1351 11.669V7.082L8.05209 12.098ZM7.94209 11.009L14.0141 5.993H8.37109C8.25375 5.993 8.15109 6.037 8.06309 6.125C7.98242 6.20567 7.94209 6.30467 7.94209 6.422V11.009Z" fill="#141820"/>
</svg>
